<svg version="1.0" xmlns="http://www.w3.org/2000/svg" xmlns:xlink="http://www.w3.org/1999/xlink" width="100%" height="100%" viewBox="0 0 340.000000 250.000000">
    <g transform="translate(52.5050048828125,82.00330352783203)">
        <g fill="#666666">
            <g transform="translate(159.98999786376953,0)" mask="url(#shapePerimeter)">
                <rect width="87" height="97.99339294433594" transform="translate(-6, -6)" fill="url(#linearGradient)">
                </rect>
            </g> 
                <g transform="translate(-9.2,34.856696128845215)">
                    <g transform="scale(1)">
                        <g>
                            <path d="M7.06-24.51L7.06-14.49 22.66-14.49 22.66-24.51 27.1-24.51 27.1 0 22.66 0 22.66-10.01 7.06-10.01 7.06 0 2.61 0 2.61-24.51 7.06-24.51ZM51.78-12.25L51.78-6.24Q51.78-5.09 51.49-4.18 51.2-3.26 50.72-2.57 50.24-1.88 49.61-1.39 48.98-0.91 48.29-0.6 47.6-0.29 46.89-0.15 46.18 0 45.54 0L45.54 0 37.53 0Q36.61 0 35.51-0.32 34.42-0.65 33.49-1.39 32.56-2.14 31.93-3.32 31.31-4.51 31.31-6.24L31.31-6.24 31.31-12.25Q31.31-13.96 31.93-15.15 32.56-16.34 33.49-17.08 34.42-17.82 35.51-18.15 36.61-18.47 37.53-18.47L37.53-18.47 45.54-18.47Q47.25-18.47 48.45-17.86 49.65-17.24 50.38-16.31 51.12-15.38 51.45-14.29 51.78-13.19 51.78-12.25L51.78-12.25ZM47.34-6.24L47.34-12.22Q47.34-13.14 46.88-13.59 46.42-14.03 45.54-14.03L45.54-14.03 37.56-14.03Q36.67-14.03 36.21-13.58 35.75-13.13 35.75-12.25L35.75-12.25 35.75-6.24Q35.75-5.37 36.21-4.9 36.67-4.44 37.56-4.44L37.56-4.44 45.54-4.44Q46.45-4.44 46.89-4.9 47.34-5.37 47.34-6.24L47.34-6.24ZM71.73-18.47L71.73-14.03 61.73-14.03Q60.82-14.03 60.36-13.58 59.9-13.13 59.9-12.25L59.9-12.25 59.9 0 55.46 0 55.46-12.25Q55.46-13.4 55.75-14.3 56.04-15.21 56.52-15.9 57.01-16.59 57.64-17.08 58.28-17.57 58.97-17.88 59.66-18.18 60.37-18.33 61.08-18.47 61.69-18.47L61.69-18.47 71.73-18.47ZM79.16-26.28L79.16-22.27 74.72-22.27 74.72-26.28 79.16-26.28ZM79.16-18.47L79.16 0 74.72 0 74.72-18.47 79.16-18.47ZM100.92-17.11L100.92-17.11Q101.19-16.47 101.06-15.83 100.93-15.18 100.47-14.7L100.47-14.7 90.2-4.44 100.88-4.44 100.88 0 84.85 0Q84.17 0 83.61-0.38 83.06-0.77 82.78-1.37L82.78-1.37Q82.53-2 82.66-2.66 82.78-3.32 83.28-3.81L83.28-3.81 93.5-14.03 82.82-14.03 82.82-18.47 98.88-18.47Q99.55-18.47 100.1-18.12 100.66-17.76 100.92-17.11ZM124.48-12.25L124.48-6.24Q124.48-5.09 124.19-4.18 123.9-3.26 123.42-2.57 122.94-1.88 122.31-1.39 121.68-0.91 120.99-0.6 120.3-0.29 119.59-0.15 118.88 0 118.24 0L118.24 0 110.23 0Q109.31 0 108.21-0.32 107.12-0.65 106.19-1.39 105.26-2.14 104.63-3.32 104.01-4.51 104.01-6.24L104.01-6.24 104.01-12.25Q104.01-13.96 104.63-15.15 105.26-16.34 106.19-17.08 107.12-17.82 108.21-18.15 109.31-18.47 110.23-18.47L110.23-18.47 118.24-18.47Q119.95-18.47 121.15-17.86 122.35-17.24 123.08-16.31 123.82-15.38 124.15-14.29 124.48-13.19 124.48-12.25L124.48-12.25ZM120.04-6.24L120.04-12.22Q120.04-13.14 119.58-13.59 119.12-14.03 118.24-14.03L118.24-14.03 110.26-14.03Q109.38-14.03 108.91-13.58 108.45-13.13 108.45-12.25L108.45-12.25 108.45-6.24Q108.45-5.37 108.91-4.9 109.38-4.44 110.26-4.44L110.26-4.44 118.24-4.44Q119.15-4.44 119.59-4.9 120.04-5.37 120.04-6.24L120.04-6.24ZM148.73-10.25L148.73 0 144.29 0 144.29-10.25Q144.29-11.13 143.99-11.82 143.69-12.51 143.18-13.01 142.67-13.5 141.97-13.77 141.28-14.03 140.48-14.03L140.48-14.03 132.7-14.03 132.7 0 128.26 0 128.26-16.27Q128.26-16.73 128.43-17.13 128.6-17.53 128.91-17.83 129.22-18.13 129.63-18.3 130.04-18.47 130.5-18.47L130.5-18.47 140.51-18.47Q141.35-18.47 142.28-18.29 143.21-18.1 144.13-17.68 145.04-17.26 145.87-16.62 146.7-15.98 147.34-15.06 147.98-14.15 148.36-12.95 148.73-11.76 148.73-10.25L148.73-10.25ZM177.31-12.25L177.31-2.24Q177.31-1.76 177.14-1.35 176.97-0.94 176.67-0.64 176.37-0.34 175.96-0.17 175.55 0 175.07 0L175.07 0 159.04 0Q158.42 0 157.71-0.15 157-0.29 156.31-0.6 155.62-0.91 154.99-1.39 154.36-1.88 153.87-2.57 153.38-3.26 153.09-4.18 152.8-5.09 152.8-6.24L152.8-6.24 152.8-18.27Q152.8-18.88 152.95-19.59 153.09-20.3 153.4-20.99 153.71-21.69 154.2-22.32 154.7-22.95 155.39-23.44 156.08-23.93 156.99-24.22 157.89-24.51 159.04-24.51L159.04-24.51 177.1-24.51 177.1-20.06 159.04-20.06Q158.17-20.06 157.71-19.6 157.24-19.14 157.24-18.23L157.24-18.23 157.24-6.24Q157.24-5.38 157.71-4.91 158.18-4.44 159.04-4.44L159.04-4.44 172.86-4.44 172.86-10.01 161.04-10.01 161.04-14.49 175.07-14.49Q175.55-14.49 175.96-14.31 176.37-14.13 176.67-13.83 176.97-13.52 177.14-13.12 177.31-12.71 177.31-12.25L177.31-12.25ZM205.95-24.51L205.95-2.24Q205.95-1.76 205.78-1.35 205.61-0.94 205.3-0.64 204.99-0.34 204.58-0.17 204.17 0 203.71 0L203.71 0 193.7 0Q192.28 0 190.83-0.31 189.37-0.62 188.01-1.26 186.66-1.9 185.46-2.89 184.26-3.88 183.37-5.24 182.47-6.6 181.96-8.35 181.44-10.1 181.44-12.25L181.44-12.25 181.44-24.51 185.89-24.51 185.89-12.25Q185.89-10.37 186.41-9.07 186.93-7.78 187.73-6.9 188.54-6.03 189.49-5.54 190.45-5.04 191.31-4.8 192.18-4.56 192.83-4.5 193.49-4.44 193.7-4.44L193.7-4.44 201.51-4.44 201.51-24.51 205.95-24.51ZM215.59-24.51L215.59 0 211.15 0 211.15-24.51 215.59-24.51Z" transform="translate(-2.6100001335144043, 26.280000686645508)">
                            </path>
                        </g>
                    </g>
                </g>
            </g>
        </g>
        <mask id="textOutline">
                <g>
                    <svg x="0" y="0" width="75" height="85.99339570720969" filter="url(#logo)">
                        <svg viewBox="12.22599983215332 -0.000054836273193359375 166.8040008544922 191.25405883789062">
                            <path d="M162.929 66.612a6 6 0 1 0-6.35 10.183c6.544 4.081 10.45 11.121 10.45 18.833s-3.906 14.752-10.45 18.833l-98.417 61.365c-6.943 4.329-15.359 4.542-22.512.573-7.154-3.97-11.425-11.225-11.425-19.406V34.262c0-8.181 4.271-15.436 11.425-19.406 7.153-3.969 15.569-3.756 22.512.573l57.292 35.723a6 6 0 1 0 6.35-10.183L64.512 5.247c-10.696-6.669-23.661-7-34.685-.883-11.021 6.116-17.601 17.293-17.601 29.898v122.73c0 12.605 6.58 23.782 17.602 29.898 5.25 2.913 10.939 4.364 16.616 4.364 6.241 0 12.467-1.754 18.068-5.247l98.417-61.365c10.082-6.287 16.101-17.133 16.101-29.015s-6.019-22.728-16.101-29.015z">
                            </path>
                        </svg>
                    </svg>
                </g>
            <g transform="translate(-169.18999786376953,34.856696128845215)" stroke="black" stroke-width="6" stroke-linejoin="round">
                <g>
                    <path d="M7.06-24.51L7.06-14.49 22.66-14.49 22.66-24.51 27.1-24.51 27.1 0 22.66 0 22.66-10.01 7.06-10.01 7.06 0 2.61 0 2.61-24.51 7.06-24.51ZM51.78-12.25L51.78-6.24Q51.78-5.09 51.49-4.18 51.2-3.26 50.72-2.57 50.24-1.88 49.61-1.39 48.98-0.91 48.29-0.6 47.6-0.29 46.89-0.15 46.18 0 45.54 0L45.54 0 37.53 0Q36.61 0 35.51-0.32 34.42-0.65 33.49-1.39 32.56-2.14 31.93-3.32 31.31-4.51 31.31-6.24L31.31-6.24 31.31-12.25Q31.31-13.96 31.93-15.15 32.56-16.34 33.49-17.08 34.42-17.82 35.51-18.15 36.61-18.47 37.53-18.47L37.53-18.47 45.54-18.47Q47.25-18.47 48.45-17.86 49.65-17.24 50.38-16.31 51.12-15.38 51.45-14.29 51.78-13.19 51.78-12.25L51.78-12.25ZM47.34-6.24L47.34-12.22Q47.34-13.14 46.88-13.59 46.42-14.03 45.54-14.03L45.54-14.03 37.56-14.03Q36.67-14.03 36.21-13.58 35.75-13.13 35.75-12.25L35.75-12.25 35.75-6.24Q35.75-5.37 36.21-4.9 36.67-4.44 37.56-4.44L37.56-4.44 45.54-4.44Q46.45-4.44 46.89-4.9 47.34-5.37 47.34-6.24L47.34-6.24ZM71.73-18.47L71.73-14.03 61.73-14.03Q60.82-14.03 60.36-13.58 59.9-13.13 59.9-12.25L59.9-12.25 59.9 0 55.46 0 55.46-12.25Q55.46-13.4 55.75-14.3 56.04-15.21 56.52-15.9 57.01-16.59 57.64-17.08 58.28-17.57 58.97-17.88 59.66-18.18 60.37-18.33 61.08-18.47 61.69-18.47L61.69-18.47 71.73-18.47ZM79.16-26.28L79.16-22.27 74.72-22.27 74.72-26.28 79.16-26.28ZM79.16-18.47L79.16 0 74.72 0 74.72-18.47 79.16-18.47ZM100.92-17.11L100.92-17.11Q101.19-16.47 101.06-15.83 100.93-15.18 100.47-14.7L100.47-14.7 90.2-4.44 100.88-4.44 100.88 0 84.85 0Q84.17 0 83.61-0.38 83.06-0.77 82.78-1.37L82.78-1.37Q82.53-2 82.66-2.66 82.78-3.32 83.28-3.81L83.28-3.81 93.5-14.03 82.82-14.03 82.82-18.47 98.88-18.47Q99.55-18.47 100.1-18.12 100.66-17.76 100.92-17.11ZM124.48-12.25L124.48-6.24Q124.48-5.09 124.19-4.18 123.9-3.26 123.42-2.57 122.94-1.88 122.31-1.39 121.68-0.91 120.99-0.6 120.3-0.29 119.59-0.15 118.88 0 118.24 0L118.24 0 110.23 0Q109.31 0 108.21-0.32 107.12-0.65 106.19-1.39 105.26-2.14 104.63-3.32 104.01-4.51 104.01-6.24L104.01-6.24 104.01-12.25Q104.01-13.96 104.63-15.15 105.26-16.34 106.19-17.08 107.12-17.82 108.21-18.15 109.31-18.47 110.23-18.47L110.23-18.47 118.24-18.47Q119.95-18.47 121.15-17.86 122.35-17.24 123.08-16.31 123.82-15.38 124.15-14.29 124.48-13.19 124.48-12.25L124.48-12.25ZM120.04-6.24L120.04-12.22Q120.04-13.14 119.58-13.59 119.12-14.03 118.24-14.03L118.24-14.03 110.26-14.03Q109.38-14.03 108.91-13.58 108.45-13.13 108.45-12.25L108.45-12.25 108.45-6.24Q108.45-5.37 108.91-4.9 109.38-4.44 110.26-4.44L110.26-4.44 118.24-4.44Q119.15-4.44 119.59-4.9 120.04-5.37 120.04-6.24L120.04-6.24ZM148.73-10.25L148.73 0 144.29 0 144.29-10.25Q144.29-11.13 143.99-11.82 143.69-12.51 143.18-13.01 142.67-13.5 141.97-13.77 141.28-14.03 140.48-14.03L140.48-14.03 132.7-14.03 132.7 0 128.26 0 128.26-16.27Q128.26-16.73 128.43-17.13 128.6-17.53 128.91-17.83 129.22-18.13 129.63-18.3 130.04-18.47 130.5-18.47L130.5-18.47 140.51-18.47Q141.35-18.47 142.28-18.29 143.21-18.1 144.13-17.68 145.04-17.26 145.87-16.62 146.7-15.98 147.34-15.06 147.98-14.15 148.36-12.95 148.73-11.76 148.73-10.25L148.73-10.25ZM177.31-12.25L177.31-2.24Q177.31-1.76 177.14-1.35 176.97-0.94 176.67-0.64 176.37-0.34 175.96-0.17 175.55 0 175.07 0L175.07 0 159.04 0Q158.42 0 157.71-0.15 157-0.29 156.31-0.6 155.62-0.91 154.99-1.39 154.36-1.88 153.87-2.57 153.38-3.26 153.09-4.18 152.8-5.09 152.8-6.24L152.8-6.24 152.8-18.27Q152.8-18.88 152.95-19.59 153.09-20.3 153.4-20.99 153.71-21.69 154.2-22.32 154.7-22.95 155.39-23.44 156.08-23.93 156.99-24.22 157.89-24.51 159.04-24.51L159.04-24.51 177.1-24.51 177.1-20.06 159.04-20.06Q158.17-20.06 157.71-19.6 157.24-19.14 157.24-18.23L157.24-18.23 157.24-6.24Q157.24-5.38 157.71-4.91 158.18-4.44 159.04-4.44L159.04-4.44 172.86-4.44 172.86-10.01 161.04-10.01 161.04-14.49 175.07-14.49Q175.55-14.49 175.96-14.31 176.37-14.13 176.67-13.83 176.97-13.52 177.14-13.12 177.31-12.71 177.31-12.25L177.31-12.25ZM205.95-24.51L205.95-2.24Q205.95-1.76 205.78-1.35 205.61-0.94 205.3-0.64 204.99-0.34 204.58-0.17 204.17 0 203.71 0L203.71 0 193.7 0Q192.28 0 190.83-0.31 189.37-0.62 188.01-1.26 186.66-1.9 185.46-2.89 184.26-3.88 183.37-5.24 182.47-6.6 181.96-8.35 181.44-10.1 181.44-12.25L181.44-12.25 181.44-24.51 185.89-24.51 185.89-12.25Q185.89-10.37 186.41-9.07 186.93-7.78 187.73-6.9 188.54-6.03 189.49-5.54 190.45-5.04 191.31-4.8 192.18-4.56 192.83-4.5 193.49-4.44 193.7-4.44L193.7-4.44 201.51-4.44 201.51-24.51 205.95-24.51ZM215.59-24.51L215.59 0 211.15 0 211.15-24.51 215.59-24.51Z" transform="translate(-2.6100001335144043, 26.280000686645508)">
                    </path>
                </g>
            </g>
        </mask>
        <defs>
            <filter id="triangleShape">
                <feColorMatrix values="0 0 0 0 0.99609375  0 0 0 0 0.99609375  0 0 0 0 0.99609375  0 0 0 1 0">
                </feColorMatrix>
            </filter>
            <linearGradient x1="0" y1="1" x2="0" y2="0" id="linearGradient">
                <stop offset="0%" stop-color="#fc62db">
                </stop>
                <stop offset="50%" stop-color="#87ebff">
                </stop>
                <stop offset="100%" stop-color="#175bec">
                </stop>
            </linearGradient>
        </defs>
        <mask id="shapePerimeter">
            <g mask="url(#textOutline)" filter="url(#triangleShape)">
                <g>
                    <svg x="0" y="0" width="75" height="85.99339570720969">
                        <svg viewBox="12.22599983215332 -0.000054836273193359375 166.8040008544922 191.25405883789062">
                            <path d="M162.929 66.612a6 6 0 1 0-6.35 10.183c6.544 4.081 10.45 11.121 10.45 18.833s-3.906 14.752-10.45 18.833l-98.417 61.365c-6.943 4.329-15.359 4.542-22.512.573-7.154-3.97-11.425-11.225-11.425-19.406V34.262c0-8.181 4.271-15.436 11.425-19.406 7.153-3.969 15.569-3.756 22.512.573l57.292 35.723a6 6 0 1 0 6.35-10.183L64.512 5.247c-10.696-6.669-23.661-7-34.685-.883-11.021 6.116-17.601 17.293-17.601 29.898v122.73c0 12.605 6.58 23.782 17.602 29.898 5.25 2.913 10.939 4.364 16.616 4.364 6.241 0 12.467-1.754 18.068-5.247l98.417-61.365c10.082-6.287 16.101-17.133 16.101-29.015s-6.019-22.728-16.101-29.015z">
                            </path>
                        </svg>
                    </svg>
                    <defs>
                        <filter id="logo">
                            <feColorMatrix values="0 0 0 0 0.99609375  0 0 0 0 0.99609375  0 0 0 0 0.99609375  0 0 0 1 0">
                            </feColorMatrix>
                        </filter>
                    </defs>
                </g>
            </g>
        </mask>
    </svg>
